<svg width="186" height="31" viewBox="0 0 186 31" fill="none" xmlns="http://www.w3.org/2000/svg">
<path d="M29.1488 13.7417L17.0699 1.66283L15.4071 0L13.7465 1.66056L3.37598 12.0311L15.9007 24.5558L21.5193 18.9349L16.7992 14.2148V21.1073L7.73665 12.0425L15.9007 3.87843L29.1192 17.0992L29.1488 17.0696L30.8116 15.4068L29.1488 13.7417Z" fill="white"/>
<path d="M10.2818 12.0429L14.9996 16.763V9.87282L24.0645 18.9354L15.9004 27.0994L2.10413 13.3031L1.66511 13.7399L0 15.4073L1.66283 17.0701L13.7417 29.149L15.4068 30.8118L17.0674 29.1512L27.8474 18.3712L15.9004 6.42432L10.2818 12.0429Z" fill="white"/>
<path d="M36.7181 18.3111L39.9914 17.9926C40.1893 19.0913 40.5897 19.8989 41.1902 20.413C41.793 20.9293 42.6051 21.1864 43.6288 21.1864C44.7138 21.1864 45.5304 20.9566 46.0786 20.4994C46.6291 20.0399 46.9021 19.5031 46.9021 18.8912C46.9021 18.4976 46.7861 18.161 46.5563 17.8857C46.3243 17.6105 45.9217 17.3694 45.3439 17.1646C44.9504 17.0281 44.0519 16.7847 42.6506 16.4367C40.8467 15.9886 39.5797 15.4404 38.8518 14.7875C37.8282 13.8708 37.3164 12.7516 37.3164 11.4323C37.3164 10.5838 37.5552 9.78992 38.0374 9.05063C38.5197 8.31134 39.2112 7.74948 40.1188 7.36277C41.0242 6.97607 42.1183 6.78271 43.399 6.78271C45.4918 6.78271 47.0659 7.24221 48.1236 8.15893C49.1814 9.07565 49.7364 10.2995 49.7887 11.8304L46.4244 11.9782C46.2811 11.1206 45.9717 10.5065 45.4986 10.1311C45.0232 9.7558 44.3134 9.56927 43.3672 9.56927C42.4209 9.56927 41.6224 9.76945 41.0697 10.1721C40.7125 10.4291 40.5351 10.7749 40.5351 11.2071C40.5351 11.6006 40.7012 11.9395 41.0355 12.2193C41.4586 12.5765 42.4914 12.9473 44.1292 13.334C45.767 13.7207 46.9772 14.121 47.762 14.5328C48.5467 14.9445 49.1609 15.5109 49.6045 16.2274C50.0481 16.944 50.271 17.8288 50.271 18.8821C50.271 19.8374 50.0048 20.7314 49.4748 21.5662C48.9448 22.4011 48.1942 23.0198 47.2228 23.4247C46.2538 23.8296 45.0436 24.0321 43.5946 24.0321C41.4882 24.0321 39.8686 23.5453 38.7403 22.5717C37.6098 21.5981 36.9365 20.1787 36.7158 18.3134L36.7181 18.3111Z" fill="white"/>
<path d="M53.1143 23.7337V7.06445H56.4809V13.6248H63.0753V7.06445H66.4397V23.7337H63.0753V16.4455H56.4809V23.7337H53.1143Z" fill="white"/>
<path d="M84.9517 23.7337H81.2894L79.8336 19.9463H73.1709L71.7947 23.7337H68.2256L74.7177 7.06445H78.2777L84.9517 23.7337ZM78.7554 17.1393L76.4579 10.9543L74.2059 17.1393H78.7531H78.7554Z" fill="white"/>
<path d="M86.6914 23.7337V7.06445H91.7277L94.7531 18.4359L97.7444 7.06445H102.792V23.7337H99.6665V10.613L96.3568 23.7337H93.1153L89.8192 10.613V23.7337H86.6914Z" fill="white"/>
<path d="M106.146 7.06445H112.808C114.128 7.06445 115.11 7.11905 115.759 7.23051C116.407 7.34197 116.987 7.56945 117.499 7.91976C118.011 8.26779 118.436 8.73184 118.777 9.3119C119.118 9.89195 119.289 10.5425 119.289 11.2613C119.289 12.0416 119.08 12.7581 118.659 13.411C118.238 14.0638 117.667 14.5529 116.946 14.8782C117.963 15.1739 118.743 15.6766 119.289 16.3909C119.835 17.1029 120.108 17.9423 120.108 18.9045C120.108 19.662 119.933 20.399 119.58 21.1155C119.228 21.8321 118.745 22.403 118.136 22.8329C117.526 23.2606 116.773 23.5245 115.879 23.6246C115.317 23.686 113.964 23.7224 111.819 23.7383H106.146V7.06445ZM109.512 9.83963V13.6953H111.719C113.031 13.6953 113.846 13.6771 114.164 13.6384C114.739 13.5702 115.192 13.37 115.522 13.0425C115.852 12.7126 116.016 12.2782 116.016 11.7413C116.016 11.2045 115.872 10.8064 115.59 10.4857C115.306 10.1649 114.883 9.9693 114.323 9.90105C113.989 9.86238 113.031 9.84418 111.446 9.84418H109.512V9.83963ZM109.512 16.4682V20.9267H112.626C113.839 20.9267 114.61 20.8926 114.935 20.8244C115.436 20.7334 115.843 20.5104 116.157 20.1579C116.471 19.8053 116.628 19.3344 116.628 18.743C116.628 18.2425 116.507 17.8194 116.264 17.4691C116.02 17.1211 115.67 16.8663 115.213 16.7071C114.753 16.5478 113.759 16.4682 112.228 16.4682H109.51H109.512Z" fill="white"/>
<path d="M122.963 23.7337V7.06445H126.33V13.6248H132.924V7.06445H136.288V23.7337H132.924V16.4455H126.33V23.7337H122.963Z" fill="white"/>
<path d="M154.799 23.7337H151.137L149.681 19.9463H143.019L141.642 23.7337H138.073L144.565 7.06445H148.125L154.799 23.7337ZM148.603 17.1393L146.306 10.9543L144.054 17.1393H148.601H148.603Z" fill="white"/>
<path d="M156.677 23.734V7.20117H160.041V20.9247H168.41V23.734H156.677Z" fill="white"/>
<path d="M185.841 23.7337H182.179L180.723 19.9463H174.061L172.684 23.7337H169.115L175.607 7.06445H179.167L185.841 23.7337ZM179.645 17.1393L177.348 10.9543L175.096 17.1393H179.643H179.645Z" fill="white"/>
</svg>
