<svg width="23" height="23" viewBox="0 0 23 23" fill="none" xmlns="http://www.w3.org/2000/svg">
    <path fill-rule="evenodd" clip-rule="evenodd"
        d="M11.5 2C6.25329 2 2 6.25329 2 11.5C2 16.7467 6.25329 21 11.5 21C16.7467 21 21 16.7467 21 11.5H19.5C19.5 15.9183 15.9183 19.5 11.5 19.5C7.08172 19.5 3.5 15.9183 3.5 11.5C3.5 7.08172 7.08172 3.5 11.5 3.5V2Z"
        fill="black" />
    <circle cx="20.0496" cy="8.64995" r="0.95" fill="black" />
    <circle cx="18.1502" cy="4.8499" r="0.95" fill="black" />
    <circle cx="14.3504" cy="2.95" r="0.95" fill="black" />
    <path
        d="M11.9769 8.49832L11.9769 8.49827C11.8269 8.03691 11.1739 8.03659 11.0239 8.49832C11.0239 8.49834 11.0239 8.49836 11.0239 8.49838L10.4973 10.1192H8.79296C8.30762 10.1192 8.10584 10.7403 8.49848 11.0255C8.49848 11.0255 8.49849 11.0255 8.4985 11.0255L9.87728 12.0273L9.35063 13.6482C9.20052 14.1101 9.72927 14.4933 10.1216 14.2083L10.1216 14.2083L11.5004 13.2065L12.8792 14.2083L12.8793 14.2084C13.2718 14.4934 13.8001 14.1098 13.6502 13.6482L13.6502 13.6482L13.1235 12.0273L14.5022 11.0256C14.5023 11.0256 14.5023 11.0255 14.5023 11.0255C14.895 10.7402 14.6931 10.1192 14.2078 10.1192H12.5035L11.9769 8.49832ZM13.9146 10.2165L13.9145 10.2165L13.9146 10.2165ZM10.1706 12.2404C10.1705 12.2403 10.1704 12.2403 10.1703 12.2402L10.1706 12.2404ZM9.98932 11.6825L9.98931 11.6825C9.98932 11.6825 9.98932 11.6825 9.98932 11.6825ZM13.0114 11.6823C13.0115 11.6825 13.0116 11.6827 13.0116 11.6829L13.0115 11.6825L13.0114 11.6823ZM10.8608 10.6185L10.8598 10.6182L10.8608 10.6185ZM11.501 12.5889L11.5004 12.5897L11.501 12.5889Z"
        stroke="black" />
</svg>