<svg width="22" height="22" viewBox="0 0 22 22" fill="none" xmlns="http://www.w3.org/2000/svg">
<path fill-rule="evenodd" clip-rule="evenodd" d="M7.88529 4.01434C8.75024 2.28443 9.80641 1.5 10.75 1.5C11.6936 1.5 12.7498 2.28443 13.6147 4.01434C14.2958 5.37656 14.781 7.19318 14.9419 9.25H6.55806C6.71898 7.19318 7.20418 5.37656 7.88529 4.01434ZM5.05385 9.25C5.21784 6.98567 5.74884 4.93313 6.54365 3.34352C6.7463 2.93821 6.97193 2.55292 7.2193 2.19772C4.3066 3.40151 2.14281 6.04997 1.621 9.25H5.05385ZM1.5 10.75C1.5 14.6083 3.86222 17.9148 7.2193 19.3023C6.97194 18.9471 6.7463 18.5618 6.54365 18.1565C5.57653 16.2222 5 13.6026 5 10.75H1.5ZM6.5 10.75C6.5 13.4202 7.04276 15.8006 7.88529 17.4857C8.75024 19.2156 9.80641 20 10.75 20C11.6936 20 12.7498 19.2156 13.6147 17.4857C14.4572 15.8006 15 13.4202 15 10.75H6.5ZM16.5 10.75C16.5 13.6026 15.9235 16.2222 14.9564 18.1565C14.7537 18.5618 14.5281 18.9471 14.2807 19.3023C17.6378 17.9148 20 14.6083 20 10.75H16.5ZM19.879 9.25C19.3572 6.04996 17.1934 3.40151 14.2807 2.19772C14.5281 2.55292 14.7537 2.93821 14.9564 3.34352C15.7512 4.93313 16.2822 6.98567 16.4461 9.25H19.879ZM21.5 10.75C21.5 16.6871 16.6871 21.5 10.75 21.5C4.81294 21.5 0 16.6871 0 10.75C0 4.81294 4.81294 0 10.75 0C16.6871 0 21.5 4.81294 21.5 10.75Z" fill="#FAFAFA"/>
</svg>
